# xmcd CD database file
#
# Track frame offsets:
#	150
#	15120
#	26550
#	40020
#	51045
#	66715
#	82700
#	96057
#	111132
#	123897
#
# Disc length: 1879 seconds
#
# Revision: 2
# Processed by: cddbd v1.5.2PL0 Copyright (c) Steve Scherf et al.
# Submitted via: CDex 1.51
#
DISCID=6d07550a
DTITLE=David Ruffin - At His Best
DYEAR=1978
DGENRE=R&B
TTITLE0=Walk Away From Love
TTITLE1=Ain't To Proud To Beg
TTITLE2=Everything's Coming Up Love
TTITLE3=I Know I'm Losing You
TTITLE4=My Whole Ended (The Moment You Left Me)
TTITLE5=You're My Peace Of Mind
TTITLE6=My Girl
TTITLE7=Just Let Me Hold You For A Night
TTITLE8=I Wish It Would Rain
TTITLE9=I Miss You - Part 1
EXTD=YEAR: 1978
EXTT0=
EXTT1=
EXTT2=
EXTT3=
EXTT4=
EXTT5=
EXTT6=
EXTT7=
EXTT8=
EXTT9=
PLAYORDER=
